<svg width="1440" height="1024" viewBox="0 0 1440 1024" fill="none" xmlns="http://www.w3.org/2000/svg">
<g clip-path="url(#clip0_159_597)">
<rect width="1440" height="1024" fill="white"/>
<path d="M225.273 1110.98L487.502 1233.65C550.458 1224.46 688.023 1251.16 683.881 1190.27C679.886 1131.54 892.961 1186.87 923.439 1130.1C959.349 1063.22 1016.23 1157.3 1095.21 1043.75C1128.63 995.691 1173.45 999.203 1220.67 931.312C1294.2 825.579 1300.45 826.15 1309.26 803.288C1340.63 721.823 1307.17 703.506 1310.97 672.165C1320.57 593.193 1250.95 613.892 1230.37 557.731C1209.79 501.57 1134.34 518.308 1107.63 500.319C1038.91 461.479 1005.14 521.098 984.887 519.631C912.276 514.37 880.309 526.966 804.424 598.608C684.811 711.533 783.147 631.498 631.405 697.075C599.968 710.66 631.437 740.418 538.704 796.127C445.055 852.387 486.31 914.035 409.696 926.773C326.664 940.578 291.004 1041.27 280.397 1046.24C226.945 1071.31 240.526 1078.38 225.273 1110.98Z" fill="#F3F9FF"/>
<path d="M1086.81 308.629C1060.14 361.303 1075.19 358.502 1083.26 393.586C1083.26 393.586 1148 446.672 1172 393.586C1196 340.5 1227.5 370.242 1277 394.371C1326.5 418.5 1365.4 328.684 1365.4 328.684C1409.33 282.668 1534.15 218.965 1493.37 173.545C1454.05 129.745 1655.98 42.0769 1645.03 -21.4157C1632.12 -96.223 1734.88 -57.1508 1727.15 -195.25C1723.87 -253.695 1761.34 -278.537 1756.72 -361.101C1749.51 -489.686 1754.79 -493.089 1747.64 -516.523C1722.17 -600.02 1684.53 -593.84 1668.23 -620.875C1627.14 -688.995 1585.04 -629.803 1534.24 -661.368C1483.43 -692.932 1434.31 -633.271 1402.19 -630.991C1324.13 -619.255 1334.25 -551.486 1317.39 -540.169C1256.95 -499.586 1239.53 -469.972 1223.88 -366.792C1199.21 -204.155 1227.38 -327.776 1148.24 -182.647C1131.84 -152.58 1174.96 -148.523 1136.22 -47.5144C1097.11 54.4909 1167.58 77.6418 1115.07 134.87C1058.17 196.892 1092.1 298.177 1086.81 308.629Z" fill="#F3F9FF"/>
<path d="M0 1023.5V2H565.5C487 51.5 561.149 95.8523 475.5 188.5C347 327.5 519.188 244.075 375 362.5C201.5 505 309.5 516.5 248 594C193.481 662.703 140.552 683.856 175 864C205.5 1023.5 66.5 917 0 1023.5Z" fill="#F3F9FF"/>
<path d="M279.852 766.69C293.758 767.729 254.384 746.572 267.118 733.389C279.852 720.205 295.025 717.887 290.874 705.56C286.724 693.234 314.921 689.661 323.891 679.732C332.861 669.804 366.46 708.095 363.67 682.39C360.88 656.684 384.716 678.828 391.586 679.732C398.456 680.637 388.967 674.354 407.771 682.39C420.795 687.956 424.465 699.873 421.076 713.267C420.32 716.257 439.875 714.165 457.817 720.205C476.518 726.502 462.92 739.94 462.92 769.817C462.92 788.809 487.152 775.777 467.574 813.451C451.545 844.296 443.466 851.456 412.933 869.005C398.137 877.509 389.606 869.534 375.016 867.777C330.182 862.38 328.774 883.675 311.836 859.012C292.39 830.699 291.153 859.012 279.852 833.579C262.897 813.392 270.62 819.73 262.081 804.144C253.541 788.558 262.47 765.39 279.852 766.69Z" fill="#F3F9FF"/>
</g>
<defs>
<clipPath id="clip0_159_597">
<rect width="1440" height="1024" fill="white"/>
</clipPath>
</defs>
</svg>
