<svg width="43" height="43" viewBox="0 0 43 43" fill="none" xmlns="http://www.w3.org/2000/svg">
<rect width="43" height="43" rx="18" fill="url(#paint0_linear_104_168)"/>
<path d="M15.6878 10.6367C14.3223 11.3211 13.3931 12.7768 13.3611 14.2825L13.3472 14.8227L12.8523 14.6275C12.1565 14.3596 11.0522 14.2164 10.307 14.2985C9.40223 14.407 6.19495 15.3852 6.08136 15.5985C6.02457 15.7051 6.10209 16.1057 6.28589 16.7083L6.57561 17.6583L5.81975 17.8888C5.28861 18.0508 5.02529 18.1758 4.9543 18.3091C4.89352 18.4392 4.92707 18.8421 5.06067 19.4265C5.39241 20.8437 8.1492 30.2853 8.32437 30.5668C8.6027 31.0402 8.97889 30.9924 11.9002 30.1015C14.8827 29.1918 15.0351 29.1788 16.1361 29.7139C16.8936 30.0745 17.567 30.1594 18.231 29.9569C18.9255 29.7451 19.3331 29.3975 19.7573 28.6653C20.4007 27.5535 20.3252 27.5989 23.5853 26.5376C26.3173 25.6485 26.5083 25.5791 26.6636 25.3197L26.8362 25.0437L24.9556 19.0973C23.3314 13.9546 23.0453 13.1264 22.84 12.9658C22.6284 12.7847 22.5405 12.7891 21.7949 13.0166L20.9777 13.2658L20.8562 12.8674C20.7908 12.6529 20.62 12.2026 20.4834 11.8647L20.2219 11.2634L19.323 11.5376L18.414 11.8148L18.1679 11.0079C17.8501 9.96604 17.7404 9.89903 16.8242 10.1896C16.4494 10.3151 15.9409 10.5148 15.6878 10.6367ZM18.7534 16.4785L20.3778 21.8779L19.5998 22.1821C18.6308 22.5558 17.9258 23.1727 17.4644 24.0392L17.1276 24.6554L15.9127 20.6719C15.1953 18.3563 14.5181 16.3189 14.2948 15.8064C13.9176 14.9725 13.8989 14.9112 13.975 14.3186C14.174 12.8847 15.1763 11.7417 16.6756 11.2397L17.1321 11.0893L18.7534 16.4785ZM20.7684 15.3615C21.3181 17.237 22.0458 19.8061 22.3952 21.0616L23.0286 23.3581L21.3739 23.8627C19.4945 24.4359 18.8986 24.7517 18.0729 25.5952C17.4763 26.2014 17.4341 26.1361 17.7631 25.165C17.975 24.5421 18.5201 23.84 19.1115 23.4363C19.3144 23.2963 19.8779 23.0574 20.3713 22.9181C21.8249 22.486 21.8509 23.0474 20.1019 17.2395L18.6208 12.31L19.203 12.1324L19.7852 11.9548L20.7684 15.3615ZM10.573 14.9877C11.2201 14.9132 12.6203 15.1114 13.141 15.3545C13.4649 15.5013 13.4742 15.5319 13.6324 16.3434C13.8378 17.4195 16.0216 24.5797 16.4633 25.6619C16.6576 26.1162 16.7933 26.4879 16.7729 26.4941C16.7525 26.5003 16.5846 26.4622 16.4073 26.3935C15.1678 25.99 14.2986 26.0318 12.1797 26.5887L10.445 27.0508L9.24255 23.1081C8.58211 20.9427 7.78824 18.4495 7.47635 17.5733L6.92597 15.9884L8.45811 15.5211C9.3059 15.2625 10.2581 15.0168 10.573 14.9877ZM22.3722 13.555C22.3753 13.5652 23.1314 16.081 24.0385 19.1649L25.6812 24.7708L22.9736 25.6301C20.2761 26.4863 20.2659 26.4894 19.7678 26.9427C19.4877 27.1956 19.1002 27.6822 18.8952 28.035C18.5664 28.6042 18.4625 28.7029 18.0051 28.887C17.4456 29.1024 17.4825 29.1134 15.9279 28.4823C15.0118 28.1142 14.561 28.1735 11.7112 29.0426L9.1883 29.8121L8.65038 28.268C8.36117 27.4296 7.53752 24.912 6.83485 22.6813L5.54703 18.6418L6.13945 18.4612L6.73188 18.2805L8.15432 23.1274C9.21315 26.7455 9.6261 28.0263 9.76787 28.1617C9.94564 28.3419 10.01 28.3334 11.5626 27.8599C14.2521 27.0508 15.331 27.0009 16.7261 27.6583C17.1033 27.8335 17.4853 27.9515 17.5773 27.9234C17.6692 27.8954 17.9235 27.5945 18.1316 27.2519C18.9845 25.8754 19.8393 25.3468 22.5838 24.4985C24.0649 24.0468 24.1435 24.0117 24.1935 23.7731C24.2254 23.5848 23.8182 22.213 22.6768 18.6535L21.0997 13.7756L21.7242 13.6633C22.0635 13.6045 22.3588 13.5479 22.3722 13.555Z" fill="white"/>
<path d="M9.37795 17.5851C9.24343 17.6931 9.19909 17.8406 9.25205 18.0142C9.34863 18.3309 9.55741 18.3565 10.7073 18.1733C12.4336 17.9035 12.3111 17.9409 12.3526 17.638C12.388 17.3146 12.2351 17.2161 11.539 17.0934C11.065 17.0035 9.68872 17.3228 9.37795 17.5851Z" fill="white"/>
<path d="M10.1062 19.607C9.86243 19.7595 9.81585 19.863 9.87504 20.0571C9.97784 20.3942 10.1733 20.4127 11.448 20.2361C12.8719 20.0362 12.974 20.0051 12.9992 19.6848C13.0472 19.0003 11.123 18.9508 10.1062 19.607Z" fill="white"/>
<path d="M10.7292 21.6499C10.4681 21.8188 10.4388 21.9059 10.5136 22.151C10.6226 22.5085 10.8119 22.5066 12.4809 22.232C13.458 22.068 13.5295 22.0462 13.6093 21.8321C13.7264 21.4838 13.4842 21.312 12.7802 21.2365C12.0965 21.1547 11.183 21.344 10.7292 21.6499Z" fill="white"/>
<path d="M11.2303 23.8416C11.0603 24.0162 11.1534 24.4679 11.348 24.5202C11.519 24.5685 13.3569 24.2983 13.8268 24.155C14.1025 24.0708 14.2197 23.9793 14.2579 23.8114C14.2866 23.6128 14.2342 23.5506 13.8961 23.4305C13.6717 23.3538 13.3154 23.2838 13.0996 23.2715C12.6269 23.2593 11.4217 23.6269 11.2303 23.8416Z" fill="white"/>
<path d="M24.812 10.2659H25.844L24.26 6.01187H23.162L21.56 10.2659H22.556L22.862 9.40187H24.506L24.812 10.2659ZM23.696 7.06787L24.206 8.53787H23.174L23.696 7.06787Z" fill="white"/>
<path d="M28.7874 18.4682V22.7222H30.5034C31.3074 22.7222 31.8354 22.2122 31.8354 21.5162C31.8354 20.9642 31.4634 20.6102 31.0794 20.5202C31.4274 20.4062 31.7034 20.0462 31.7034 19.6082C31.7034 18.9542 31.2174 18.4682 30.3774 18.4682H28.7874ZM29.7114 20.1722V19.2542H30.2154C30.5874 19.2542 30.7734 19.4342 30.7734 19.7102C30.7734 19.9982 30.5574 20.1722 30.2274 20.1722H29.7114ZM29.7114 21.9482V20.9522H30.3054C30.6774 20.9522 30.8934 21.1562 30.8934 21.4502C30.8934 21.7562 30.6714 21.9482 30.3054 21.9482H29.7114Z" fill="white"/>
<path d="M27.5073 36.1217C28.8273 36.1217 29.3913 35.2217 29.5293 34.6337L28.6233 34.3757C28.5393 34.6817 28.2453 35.1737 27.5073 35.1737C26.8713 35.1737 26.2833 34.7117 26.2833 33.9137C26.2833 33.0197 26.9253 32.6117 27.4953 32.6117C28.2453 32.6117 28.5153 33.1097 28.5813 33.4037L29.4753 33.1217C29.3373 32.5097 28.7733 31.6877 27.4953 31.6877C26.3073 31.6877 25.2993 32.5877 25.2993 33.9137C25.2993 35.2397 26.2833 36.1217 27.5073 36.1217Z" fill="white"/>
<defs>
<linearGradient id="paint0_linear_104_168" x1="2.04762" y1="43" x2="43" y2="1.43406e-06" gradientUnits="userSpaceOnUse">
<stop stop-color="#FBCB24"/>
<stop offset="1" stop-color="#4CA6F9"/>
</linearGradient>
</defs>
</svg>
