<svg width="247" height="229" viewBox="0 0 247 229" fill="none" xmlns="http://www.w3.org/2000/svg">
<path d="M16.5193 166.972C4.37418 176.267 7.24882 177.616 3.38283 187.299C3.38283 187.299 -4.54192 220.034 7.22835 210.278C18.9986 200.522 19.7527 212.064 24.2795 224.665C28.8062 237.266 50.6008 215.606 50.6008 215.606C64.5855 210.276 96.7626 200.575 96.8094 183.94C96.8545 167.897 145.033 174.516 150.42 156.696C160.477 123.431 167.722 124.367 184.735 114.901C198.114 107.455 206.314 100.845 214.083 78.2815C225.281 45.7588 232.767 66.9695 238.023 60.2903C253.316 40.853 242.264 43.1474 243.594 34.3221C246.945 12.0849 232.95 21.9127 229.309 7.31412C225.667 -7.28448 215.168 6.76049 191.081 2.61821C166.994 -1.52408 170.024 14.3087 165.595 14.8017C149.715 16.5695 157.365 23.2939 139.556 46.4473C111.485 82.9425 134.361 56.4752 99.9711 81.3182C92.8463 86.465 76.8745 93.1429 72.7977 112.145C68.7209 131.147 60.7403 144.718 42.3824 153.951C24.2605 163.067 18.9294 165.128 16.5193 166.972Z" fill="#FBCB24"/>
</svg>
