<svg width="482" height="341" viewBox="0 0 482 341" fill="none" xmlns="http://www.w3.org/2000/svg">
<path d="M12.8145 303.953V329.687H9.5625V308.013L3.00586 310.404V307.468L12.3047 303.953H12.8145Z" fill="black"/>
<path d="M128.271 332.295V334.967H111.519V332.629L119.903 323.295C120.935 322.147 121.731 321.174 122.294 320.377C122.868 319.569 123.267 318.848 123.489 318.215C123.724 317.571 123.841 316.914 123.841 316.246C123.841 315.403 123.665 314.641 123.313 313.961C122.974 313.27 122.47 312.719 121.802 312.309C121.134 311.899 120.325 311.694 119.376 311.694C118.239 311.694 117.29 311.916 116.528 312.362C115.778 312.795 115.216 313.405 114.841 314.19C114.466 314.975 114.278 315.877 114.278 316.897H111.026C111.026 315.455 111.343 314.137 111.976 312.942C112.608 311.746 113.546 310.797 114.788 310.094C116.03 309.379 117.56 309.022 119.376 309.022C120.993 309.022 122.376 309.309 123.524 309.883C124.673 310.446 125.552 311.242 126.161 312.274C126.782 313.293 127.093 314.489 127.093 315.86C127.093 316.61 126.964 317.371 126.706 318.145C126.46 318.906 126.114 319.668 125.669 320.43C125.235 321.192 124.726 321.942 124.14 322.68C123.565 323.418 122.95 324.145 122.294 324.86L115.438 332.295H128.271Z" fill="black"/>
<path d="M233.918 320.571H236.239C237.375 320.571 238.313 320.383 239.051 320.008C239.801 319.621 240.358 319.1 240.721 318.444C241.096 317.776 241.284 317.026 241.284 316.194C241.284 315.209 241.12 314.383 240.792 313.715C240.463 313.047 239.971 312.543 239.315 312.203C238.659 311.864 237.827 311.694 236.819 311.694C235.905 311.694 235.096 311.875 234.393 312.239C233.702 312.59 233.157 313.094 232.758 313.75C232.372 314.406 232.178 315.18 232.178 316.071H228.926C228.926 314.77 229.254 313.586 229.911 312.52C230.567 311.453 231.487 310.604 232.67 309.971C233.866 309.338 235.249 309.022 236.819 309.022C238.366 309.022 239.719 309.297 240.879 309.848C242.04 310.387 242.942 311.196 243.586 312.274C244.231 313.34 244.553 314.67 244.553 316.264C244.553 316.908 244.401 317.6 244.096 318.338C243.803 319.065 243.34 319.744 242.708 320.377C242.086 321.01 241.278 321.531 240.282 321.942C239.286 322.34 238.09 322.539 236.696 322.539H233.918V320.571ZM233.918 323.242V321.291H236.696C238.325 321.291 239.672 321.485 240.739 321.871C241.805 322.258 242.643 322.774 243.252 323.418C243.874 324.063 244.307 324.772 244.553 325.545C244.811 326.307 244.94 327.069 244.94 327.83C244.94 329.026 244.735 330.086 244.325 331.012C243.926 331.938 243.358 332.723 242.62 333.367C241.893 334.012 241.038 334.498 240.053 334.826C239.069 335.155 237.997 335.319 236.836 335.319C235.723 335.319 234.674 335.16 233.69 334.844C232.717 334.528 231.856 334.071 231.106 333.473C230.356 332.864 229.77 332.119 229.348 331.24C228.926 330.35 228.715 329.336 228.715 328.199H231.967C231.967 329.09 232.161 329.869 232.547 330.537C232.946 331.205 233.508 331.727 234.235 332.102C234.973 332.465 235.84 332.647 236.836 332.647C237.833 332.647 238.688 332.477 239.403 332.137C240.129 331.785 240.686 331.258 241.073 330.555C241.471 329.852 241.67 328.967 241.67 327.901C241.67 326.834 241.448 325.961 241.002 325.281C240.557 324.59 239.924 324.08 239.104 323.752C238.295 323.412 237.34 323.242 236.239 323.242H233.918Z" fill="black"/>
<path d="M364.141 320.32V322.991H345.648V321.075L357.109 303.339H359.764L356.916 308.472L349.34 320.32H364.141ZM360.572 303.339V328.933H357.32V303.339H360.572Z" fill="black"/>
<path d="M466.365 319.768L463.764 319.1L465.047 306.356H478.178V309.362H467.807L467.033 316.323C467.502 316.053 468.094 315.801 468.809 315.567C469.535 315.333 470.367 315.215 471.305 315.215C472.489 315.215 473.549 315.42 474.487 315.831C475.424 316.229 476.221 316.803 476.877 317.553C477.545 318.303 478.055 319.206 478.406 320.26C478.758 321.315 478.934 322.493 478.934 323.793C478.934 325.024 478.764 326.155 478.424 327.186C478.096 328.217 477.598 329.12 476.93 329.893C476.262 330.655 475.418 331.247 474.399 331.668C473.391 332.09 472.201 332.301 470.83 332.301C469.799 332.301 468.821 332.161 467.895 331.879C466.981 331.586 466.16 331.147 465.434 330.561C464.719 329.963 464.133 329.225 463.676 328.346C463.231 327.456 462.949 326.413 462.832 325.217H465.926C466.067 326.178 466.348 326.987 466.77 327.643C467.192 328.299 467.742 328.797 468.422 329.137C469.114 329.465 469.916 329.629 470.83 329.629C471.604 329.629 472.289 329.495 472.887 329.225C473.485 328.956 473.989 328.569 474.399 328.065C474.809 327.561 475.119 326.952 475.33 326.237C475.553 325.522 475.664 324.719 475.664 323.829C475.664 323.02 475.553 322.27 475.33 321.579C475.108 320.887 474.774 320.284 474.328 319.768C473.895 319.252 473.362 318.854 472.729 318.573C472.096 318.28 471.369 318.133 470.549 318.133C469.459 318.133 468.633 318.28 468.071 318.573C467.52 318.866 466.951 319.264 466.365 319.768Z" fill="black"/>
<path d="M186.469 16.8438L189.855 4.9375H191.496L190.547 9.56641L186.902 22H185.273L186.469 16.8438ZM182.965 4.9375L185.66 16.6094L186.469 22H184.852L180.715 4.9375H182.965ZM195.879 16.5977L198.516 4.9375H200.777L196.652 22H195.035L195.879 16.5977ZM191.742 4.9375L195.035 16.8438L196.23 22H194.602L191.086 9.56641L190.125 4.9375H191.742ZM205.312 9.32031V22H203.133V9.32031H205.312ZM202.969 5.95703C202.969 5.60547 203.074 5.30859 203.285 5.06641C203.504 4.82422 203.824 4.70312 204.246 4.70312C204.66 4.70312 204.977 4.82422 205.195 5.06641C205.422 5.30859 205.535 5.60547 205.535 5.95703C205.535 6.29297 205.422 6.58203 205.195 6.82422C204.977 7.05859 204.66 7.17578 204.246 7.17578C203.824 7.17578 203.504 7.05859 203.285 6.82422C203.074 6.58203 202.969 6.29297 202.969 5.95703ZM210.961 12.0273V22H208.793V9.32031H210.844L210.961 12.0273ZM210.445 15.1797L209.543 15.1445C209.551 14.2773 209.68 13.4766 209.93 12.7422C210.18 12 210.531 11.3555 210.984 10.8086C211.438 10.2617 211.977 9.83984 212.602 9.54297C213.234 9.23828 213.934 9.08594 214.699 9.08594C215.324 9.08594 215.887 9.17188 216.387 9.34375C216.887 9.50781 217.312 9.77344 217.664 10.1406C218.023 10.5078 218.297 10.9844 218.484 11.5703C218.672 12.1484 218.766 12.8555 218.766 13.6914V22H216.586V13.668C216.586 13.0039 216.488 12.4727 216.293 12.0742C216.098 11.668 215.812 11.375 215.438 11.1953C215.062 11.0078 214.602 10.9141 214.055 10.9141C213.516 10.9141 213.023 11.0273 212.578 11.2539C212.141 11.4805 211.762 11.793 211.441 12.1914C211.129 12.5898 210.883 13.0469 210.703 13.5625C210.531 14.0703 210.445 14.6094 210.445 15.1797ZM224.227 12.0273V22H222.059V9.32031H224.109L224.227 12.0273ZM223.711 15.1797L222.809 15.1445C222.816 14.2773 222.945 13.4766 223.195 12.7422C223.445 12 223.797 11.3555 224.25 10.8086C224.703 10.2617 225.242 9.83984 225.867 9.54297C226.5 9.23828 227.199 9.08594 227.965 9.08594C228.59 9.08594 229.152 9.17188 229.652 9.34375C230.152 9.50781 230.578 9.77344 230.93 10.1406C231.289 10.5078 231.562 10.9844 231.75 11.5703C231.938 12.1484 232.031 12.8555 232.031 13.6914V22H229.852V13.668C229.852 13.0039 229.754 12.4727 229.559 12.0742C229.363 11.668 229.078 11.375 228.703 11.1953C228.328 11.0078 227.867 10.9141 227.32 10.9141C226.781 10.9141 226.289 11.0273 225.844 11.2539C225.406 11.4805 225.027 11.793 224.707 12.1914C224.395 12.5898 224.148 13.0469 223.969 13.5625C223.797 14.0703 223.711 14.6094 223.711 15.1797ZM240.586 22.2344C239.703 22.2344 238.902 22.0859 238.184 21.7891C237.473 21.4844 236.859 21.0586 236.344 20.5117C235.836 19.9648 235.445 19.3164 235.172 18.5664C234.898 17.8164 234.762 16.9961 234.762 16.1055V15.6133C234.762 14.582 234.914 13.6641 235.219 12.8594C235.523 12.0469 235.938 11.3594 236.461 10.7969C236.984 10.2344 237.578 9.80859 238.242 9.51953C238.906 9.23047 239.594 9.08594 240.305 9.08594C241.211 9.08594 241.992 9.24219 242.648 9.55469C243.312 9.86719 243.855 10.3047 244.277 10.8672C244.699 11.4219 245.012 12.0781 245.215 12.8359C245.418 13.5859 245.52 14.4062 245.52 15.2969V16.2695H236.051V14.5H243.352V14.3359C243.32 13.7734 243.203 13.2266 243 12.6953C242.805 12.1641 242.492 11.7266 242.062 11.3828C241.633 11.0391 241.047 10.8672 240.305 10.8672C239.812 10.8672 239.359 10.9727 238.945 11.1836C238.531 11.3867 238.176 11.6914 237.879 12.0977C237.582 12.5039 237.352 13 237.188 13.5859C237.023 14.1719 236.941 14.8477 236.941 15.6133V16.1055C236.941 16.707 237.023 17.2734 237.188 17.8047C237.359 18.3281 237.605 18.7891 237.926 19.1875C238.254 19.5859 238.648 19.8984 239.109 20.125C239.578 20.3516 240.109 20.4648 240.703 20.4648C241.469 20.4648 242.117 20.3086 242.648 19.9961C243.18 19.6836 243.645 19.2656 244.043 18.7422L245.355 19.7852C245.082 20.1992 244.734 20.5938 244.312 20.9688C243.891 21.3438 243.371 21.6484 242.754 21.8828C242.145 22.1172 241.422 22.2344 240.586 22.2344ZM250.219 11.3125V22H248.051V9.32031H250.16L250.219 11.3125ZM254.18 9.25L254.168 11.2656C253.988 11.2266 253.816 11.2031 253.652 11.1953C253.496 11.1797 253.316 11.1719 253.113 11.1719C252.613 11.1719 252.172 11.25 251.789 11.4062C251.406 11.5625 251.082 11.7812 250.816 12.0625C250.551 12.3438 250.34 12.6797 250.184 13.0703C250.035 13.4531 249.938 13.875 249.891 14.3359L249.281 14.6875C249.281 13.9219 249.355 13.2031 249.504 12.5312C249.66 11.8594 249.898 11.2656 250.219 10.75C250.539 10.2266 250.945 9.82031 251.438 9.53125C251.938 9.23438 252.531 9.08594 253.219 9.08594C253.375 9.08594 253.555 9.10547 253.758 9.14453C253.961 9.17578 254.102 9.21094 254.18 9.25Z" fill="black"/>
<path d="M6.03442 285.373V203.153H60.7214M469.554 285.373V203.153H355.277M115.408 285.373V203.153H60.7214M355.277 203.153V285.373M355.277 203.153H239.114V285.373M355.277 203.153V116.786H212.714M60.7214 203.153V116.786H212.714M212.714 38.3381V116.786" stroke="black" stroke-width="4"/>
</svg>
